<svg version="1.1" xmlns="http://www.w3.org/2000/svg" viewBox="0 0 2049.204675040284 1338.1846450220728" width="2049.204675040284" height="1338.1846450220728">
  <!-- svg-source:excalidraw -->
  
  <defs>
    <style class="style-fonts">
      @font-face {
        font-family: "Virgil";
        src: url("https://excalidraw.com/Virgil.woff2");
      }
      @font-face {
        font-family: "Cascadia";
        src: url("https://excalidraw.com/Cascadia.woff2");
      }
    </style>
  </defs>
  <rect x="0" y="0" width="2049.204675040284" height="1338.1846450220728" fill="#ffffff"></rect><g stroke-linecap="round" transform="translate(111.71895256059955 139.8305808173286) rotate(0 960 540)"><path d="M0.44 0.26 C532.9 -0.79, 1066.46 0.21, 1919.2 -0.27 M0.08 -0.1 C437.36 3.16, 874.66 3.62, 1919.66 0.13 M1919.39 -0.72 C1916.17 218.46, 1917.19 439.07, 1919.39 1079.39 M1919.68 0.18 C1916.54 310.26, 1917.01 620.31, 1920.39 1079.92 M1920.39 1080.11 C1249.04 1080.4, 578.36 1081.38, -0.33 1080.77 M1920.27 1079.84 C1515.94 1087.4, 1111.63 1087.49, -0.15 1079.85 M-0.32 1079.94 C3.76 652.2, 4.04 225.06, 0.78 0.46 M0.23 1080.33 C3.72 776.94, 3.37 474.11, 0.28 0.11" stroke="#000000" stroke-width="1" fill="none"></path></g><g stroke-linecap="round"><g transform="translate(65.09848950721462 146.9840122909527) rotate(0 0.2676395408157255 532.8497002797138)"><path d="M0.65 0.39 C0.57 177.89, -0.63 887.34, -0.86 1065.04 M-0.46 -0.46 C-0.13 177.18, 1.03 888.65, 1.4 1066.15" stroke="#888888" stroke-width="1" fill="none"></path></g><g transform="translate(65.09848950721462 146.9840122909527) rotate(0 0.2676395408157255 532.8497002797138)"><path d="M11.52 27.16 C6.79 19.84, 6.55 11.51, -0.01 -1.06 M10.62 28.66 C7.02 18.96, 4.67 8.46, 0.98 -0.58" stroke="#888888" stroke-width="1" fill="none"></path></g><g transform="translate(65.09848950721462 146.9840122909527) rotate(0 0.2676395408157255 532.8497002797138)"><path d="M-9 27.13 C-8.22 19.7, -2.95 11.39, -0.01 -1.06 M-9.9 28.64 C-6.47 18.9, -1.8 8.4, 0.98 -0.58" stroke="#888888" stroke-width="1" fill="none"></path></g><g transform="translate(65.09848950721462 146.9840122909527) rotate(0 0.2676395408157255 532.8497002797138)"><path d="M-8.27 1036.55 C-7.47 1044.25, -2.19 1051.06, 0.73 1064.71 M-9.17 1038.05 C-5.98 1047.62, -1.3 1056.42, 1.72 1065.18" stroke="#888888" stroke-width="1" fill="none"></path></g><g transform="translate(65.09848950721462 146.9840122909527) rotate(0 0.2676395408157255 532.8497002797138)"><path d="M12.25 1036.51 C7.54 1044.34, 7.31 1051.16, 0.73 1064.71 M11.36 1038.02 C7.51 1047.64, 5.16 1056.45, 1.72 1065.18" stroke="#888888" stroke-width="1" fill="none"></path></g></g><g transform="translate(-37.66235608944501 647.6683346075974) rotate(269.7234238274492 70 22.00000000000003)"><text x="0" y="31" font-family="Virgil, Segoe UI Emoji" font-size="34.88260550670268px" fill="#888888" text-anchor="start" style="white-space: pre;" direction="ltr">1080 px</text></g><g stroke-linecap="round"><g transform="translate(116.87775586463664 1268.2263015162134) rotate(0 960.7324347453007 0.173849224056994)"><path d="M-0.86 -0.8 C319.03 -0.75, 1599.94 0.64, 1920.01 0.71 M0.89 1.39 C321.11 1.07, 1602.17 -0.93, 1922.33 -1.05" stroke="#888888" stroke-width="1" fill="none"></path></g><g transform="translate(116.87775586463664 1268.2263015162134) rotate(0 960.7324347453007 0.173849224056994)"><path d="M26 -12.28 C18.55 -9.6, 6.71 -5.43, -0.01 -1.67 M26.86 -11.03 C18.94 -8.58, 9.55 -5.42, -1.59 -1.09" stroke="#888888" stroke-width="1" fill="none"></path></g><g transform="translate(116.87775586463664 1268.2263015162134) rotate(0 960.7324347453007 0.173849224056994)"><path d="M25.99 8.24 C18.47 3.65, 6.64 0.55, -0.01 -1.67 M26.85 9.49 C18.98 5.37, 9.6 1.94, -1.59 -1.09" stroke="#888888" stroke-width="1" fill="none"></path></g><g transform="translate(116.87775586463664 1268.2263015162134) rotate(0 960.7324347453007 0.173849224056994)"><path d="M1892.81 8.01 C1905.28 3.81, 1913.43 0.71, 1923.18 -1.92 M1893.67 9.25 C1903.88 5.08, 1912.57 1.65, 1921.6 -1.34" stroke="#888888" stroke-width="1" fill="none"></path></g><g transform="translate(116.87775586463664 1268.2263015162134) rotate(0 960.7324347453007 0.173849224056994)"><path d="M1892.79 -12.52 C1905.33 -9.44, 1913.49 -5.27, 1923.18 -1.92 M1893.65 -11.27 C1903.81 -8.86, 1912.51 -5.71, 1921.6 -1.34" stroke="#888888" stroke-width="1" fill="none"></path></g></g><g transform="translate(1011.0387836551026 1284.1846450220728) rotate(0 68 22)"><text x="0" y="31" font-family="Virgil, Segoe UI Emoji" font-size="34.88260550670268px" fill="#888888" text-anchor="start" style="white-space: pre;" direction="ltr">1920 px</text></g><g transform="translate(116.90752939514147 73.30216217041016) rotate(0 102 20.5)"><text x="0" y="29" font-family="Virgil, Segoe UI Emoji" font-size="32.33906094990074px" fill="#888888" text-anchor="start" style="white-space: pre;" direction="ltr">1920 x 1080</text></g><g transform="translate(118.84631113342272 10) rotate(0 121.5 20.5)"><text x="0" y="29" font-family="Virgil, Segoe UI Emoji" font-size="32.33906094990074px" fill="#888888" text-anchor="start" style="white-space: pre;" direction="ltr">iMac (21.5 inch)</text></g><g stroke-linecap="round" transform="translate(950.4963121152816 176.04723636437035) rotate(0 85.75937186095189 85.75937186095189)"><path d="M112.7 5.3 C123.75 7.5, 135.9 15.12, 144.61 23.08 C153.33 31.03, 160.42 42.36, 165 53.02 C169.59 63.69, 172.52 75.78, 172.14 87.09 C171.75 98.41, 167.67 110.26, 162.69 120.92 C157.71 131.59, 150.98 143.34, 142.25 151.08 C133.52 158.82, 121.36 163.9, 110.32 167.34 C99.29 170.78, 87.35 172.91, 76.02 171.74 C64.7 170.57, 52.46 166.37, 42.39 160.31 C32.32 154.26, 22.45 145.04, 15.61 135.43 C8.76 125.82, 3.57 114.19, 1.3 102.65 C-0.96 91.11, -0.78 77.44, 2.02 66.21 C4.81 54.98, 11.1 44.46, 18.09 35.28 C25.07 26.1, 33.98 16.78, 43.92 11.11 C53.87 5.45, 64.98 1.74, 77.77 1.29 C90.56 0.83, 112.42 6.37, 120.66 8.39 C128.9 10.4, 127.77 12.16, 127.19 13.39 M52.54 6.95 C62.22 0.92, 74.83 -0.93, 86.23 -0.89 C97.64 -0.85, 110.13 2.47, 120.95 7.18 C131.78 11.89, 143.64 18.72, 151.19 27.35 C158.74 35.98, 162.96 47.93, 166.25 58.98 C169.53 70.03, 172.06 81.82, 170.91 93.67 C169.76 105.52, 165.33 119.96, 159.34 130.09 C153.35 140.23, 144.11 147.74, 134.97 154.49 C125.83 161.25, 115.83 167.88, 104.52 170.61 C93.21 173.34, 78.76 173.68, 67.1 170.88 C55.44 168.09, 43.88 161.07, 34.58 153.83 C25.28 146.59, 17.15 137.14, 11.31 127.44 C5.47 117.74, 0.84 107.22, -0.47 95.64 C-1.78 84.06, -0.5 69.17, 3.45 57.97 C7.41 46.78, 15.32 36.79, 23.27 28.46 C31.21 20.13, 46.2 11.21, 51.1 7.99 C56 4.76, 52.22 7.72, 52.66 9.09" stroke="none" stroke-width="0" fill="white"></path><path d="M96.78 0.47 C107.82 0.78, 121.23 7.49, 131.29 13.66 C141.35 19.82, 150.67 27.94, 157.17 37.46 C163.67 46.98, 168.24 59.19, 170.27 70.78 C172.3 82.36, 172.26 95.59, 169.35 106.98 C166.44 118.37, 160.04 129.91, 152.79 139.13 C145.54 148.35, 135.89 157.03, 125.82 162.29 C115.75 167.54, 103.75 170.12, 92.35 170.65 C80.95 171.19, 68.4 169.33, 57.42 165.5 C46.44 161.68, 35.11 155.49, 26.47 147.69 C17.83 139.9, 9.86 129.6, 5.58 118.73 C1.3 107.85, 0.25 94.01, 0.8 82.43 C1.35 70.86, 3.79 59.76, 8.87 49.28 C13.96 38.8, 22.48 27.18, 31.33 19.56 C40.18 11.95, 50.47 6.61, 61.98 3.57 C73.49 0.54, 93.61 1.29, 100.4 1.36 C107.2 1.43, 103.08 2.66, 102.73 4 M114.68 6.38 C125.51 8.84, 135.41 16.03, 143.98 24.06 C152.55 32.08, 161.44 43.64, 166.1 54.54 C170.75 65.44, 172.54 78.03, 171.91 89.45 C171.28 100.87, 167.43 112.84, 162.31 123.06 C157.19 133.29, 149.98 143.12, 141.19 150.81 C132.4 158.5, 120.47 165.82, 109.56 169.21 C98.64 172.6, 87.36 173.13, 75.69 171.14 C64.02 169.15, 49.74 163.54, 39.54 157.28 C29.34 151.02, 20.63 142.98, 14.47 133.58 C8.32 124.19, 4.71 112.06, 2.62 100.89 C0.52 89.72, -0.66 77.8, 1.91 66.55 C4.48 55.31, 10.81 42.65, 18.03 33.42 C25.25 24.2, 35.04 16.87, 45.23 11.19 C55.42 5.5, 67.79 0.38, 79.17 -0.68 C90.54 -1.75, 107.8 3.74, 113.5 4.82 C119.19 5.89, 113.85 4.52, 113.33 5.75" stroke="#000000" stroke-width="1" fill="none"></path></g><g stroke-linecap="round" transform="translate(1007.7590419085245 207.9494289381899) rotate(0 30.415209371479193 30.415209371479193)"><path d="M17.86 3.35 C23.52 0.52, 32.39 -0.82, 38.82 0.9 C45.24 2.63, 52.79 8.21, 56.43 13.72 C60.07 19.23, 61.41 27.51, 60.66 33.96 C59.92 40.41, 56.8 48.06, 51.97 52.4 C47.15 56.75, 38.31 59.71, 31.69 60.05 C25.07 60.39, 17.48 58.33, 12.24 54.44 C7.01 50.55, 1.89 43.02, 0.28 36.69 C-1.32 30.35, -1.58 22.34, 2.6 16.42 C6.78 10.51, 20.65 3.66, 25.38 1.19 C30.11 -1.29, 31.11 1.08, 30.97 1.58 M39.71 1.97 C45.76 2.87, 52.11 6.43, 55.39 11.62 C58.67 16.81, 59.77 26.6, 59.38 33.13 C59 39.67, 57.52 46.11, 53.05 50.83 C48.58 55.55, 39.01 60.56, 32.55 61.47 C26.08 62.37, 19.26 60.13, 14.25 56.27 C9.23 52.41, 4.27 44.81, 2.45 38.28 C0.62 31.76, 0.71 23.06, 3.3 17.12 C5.89 11.18, 12.3 5.11, 18.01 2.66 C23.72 0.22, 33.97 2.64, 37.55 2.44 C41.14 2.25, 39.49 1.33, 39.54 1.51" stroke="none" stroke-width="0" fill="black"></path><path d="M33.19 0.88 C39.58 1.03, 47.65 4.19, 52.25 8.66 C56.85 13.14, 60.22 21.13, 60.8 27.76 C61.38 34.39, 59.6 42.98, 55.76 48.45 C51.92 53.91, 44.17 58.79, 37.76 60.55 C31.35 62.31, 23.04 61.97, 17.29 59.02 C11.54 56.07, 5.85 49.03, 3.25 42.83 C0.65 36.63, 0.08 28, 1.69 21.81 C3.29 15.61, 6.53 8.92, 12.86 5.66 C19.19 2.4, 33.83 2.36, 39.65 2.26 C45.47 2.15, 47.76 4.5, 47.77 5.03 M44.23 3.94 C50.17 6.48, 55.86 13.47, 58.59 19.26 C61.32 25.05, 62.57 32.43, 60.6 38.68 C58.64 44.94, 52.56 53.06, 46.82 56.8 C41.07 60.55, 32.53 61.82, 26.13 61.15 C19.74 60.47, 12.97 57.5, 8.46 52.75 C3.96 48, -0.66 39.15, -0.9 32.65 C-1.15 26.14, 2.88 18.84, 6.99 13.74 C11.1 8.65, 17.7 3.81, 23.73 2.08 C29.77 0.36, 39.9 3.16, 43.21 3.39 C46.52 3.62, 43.75 2.83, 43.6 3.44" stroke="#000000" stroke-width="1" fill="none"></path></g><g stroke-linecap="round"><g transform="translate(977.7292393017467 307.7610619730302) rotate(0 58.75610610168087 0.013121730412322563)" fill-rule="evenodd"><path d="M1.12 1.51 L24.79 -19.91 L43.89 -25.9 L58.34 -30.65 L79.44 -26.01 L97.33 -18.28 L112.47 -12.09 L115.63 -5.68 L117.26 -1.45 L117.05 5.47 L111.24 10.51 L101.96 23.05 L88.24 28.98 L72.45 30.75 L59.12 30.98 L45 31.26 L35 25.78 L20.1 16.61 L-0.66 -0.77" stroke="none" stroke-width="0" fill="black" fill-rule="evenodd"></path><path d="M0.19 -0.73 C4.42 -4.26, 15.6 -15.21, 25.68 -20.15 C35.76 -25.09, 48.81 -30.48, 60.67 -30.37 C72.53 -30.25, 87.18 -24.24, 96.85 -19.47 C106.51 -14.7, 117.86 -8.39, 118.64 -1.76 C119.41 4.86, 108.87 15, 101.5 20.28 C94.14 25.56, 83.59 28.3, 74.45 29.93 C65.3 31.56, 55.54 31.82, 46.63 30.07 C37.72 28.33, 28.94 24.45, 20.98 19.45 C13.02 14.45, 2.36 3.48, -1.13 0.08 M-1.17 1.5 C2.84 -1.88, 14.27 -16.41, 24.53 -22.06 C34.79 -27.71, 48.31 -33.03, 60.4 -32.41 C72.48 -31.78, 87.55 -23.5, 97.04 -18.3 C106.52 -13.09, 116.85 -7.97, 117.3 -1.18 C117.75 5.61, 107.3 16.92, 99.74 22.44 C92.18 27.96, 80.86 30.7, 71.94 31.95 C63.02 33.19, 54.43 32.16, 46.2 29.92 C37.97 27.68, 30.43 23.55, 22.57 18.51 C14.71 13.47, 2.74 2.83, -0.96 -0.33" stroke="#000000" stroke-width="1" fill="none"></path></g></g><g stroke-linecap="round" transform="translate(1939.387148673816 221.85389731707875) rotate(0 3.297106730988503 3.2971067309884674)"><path d="M6.59 3.3 C6.59 3.49, 6.58 3.68, 6.54 3.87 C6.51 4.06, 6.46 4.25, 6.4 4.42 C6.33 4.6, 6.25 4.78, 6.15 4.95 C6.06 5.11, 5.95 5.27, 5.82 5.42 C5.7 5.56, 5.56 5.7, 5.42 5.82 C5.27 5.95, 5.11 6.06, 4.95 6.15 C4.78 6.25, 4.6 6.33, 4.42 6.4 C4.25 6.46, 4.06 6.51, 3.87 6.54 C3.68 6.58, 3.49 6.59, 3.3 6.59 C3.11 6.59, 2.91 6.58, 2.72 6.54 C2.54 6.51, 2.35 6.46, 2.17 6.4 C1.99 6.33, 1.81 6.25, 1.65 6.15 C1.48 6.06, 1.32 5.95, 1.18 5.82 C1.03 5.7, 0.89 5.56, 0.77 5.42 C0.65 5.27, 0.54 5.11, 0.44 4.95 C0.35 4.78, 0.26 4.6, 0.2 4.42 C0.13 4.25, 0.08 4.06, 0.05 3.87 C0.02 3.68, 0 3.49, 0 3.3 C0 3.11, 0.02 2.91, 0.05 2.72 C0.08 2.54, 0.13 2.35, 0.2 2.17 C0.26 1.99, 0.35 1.81, 0.44 1.65 C0.54 1.48, 0.65 1.32, 0.77 1.18 C0.89 1.03, 1.03 0.89, 1.18 0.77 C1.32 0.65, 1.48 0.54, 1.65 0.44 C1.81 0.35, 1.99 0.26, 2.17 0.2 C2.35 0.13, 2.54 0.08, 2.72 0.05 C2.91 0.02, 3.11 0, 3.3 0 C3.49 0, 3.68 0.02, 3.87 0.05 C4.06 0.08, 4.25 0.13, 4.42 0.2 C4.6 0.26, 4.78 0.35, 4.95 0.44 C5.11 0.54, 5.27 0.65, 5.42 0.77 C5.56 0.89, 5.7 1.03, 5.82 1.18 C5.95 1.32, 6.06 1.48, 6.15 1.65 C6.25 1.81, 6.33 1.99, 6.4 2.17 C6.46 2.35, 6.51 2.54, 6.54 2.72 C6.58 2.91, 6.59 3.2, 6.59 3.3 C6.6 3.39, 6.6 3.2, 6.59 3.3" stroke="#000000" stroke-width="1" fill="none"></path></g><g stroke-linecap="round" transform="translate(1939.387148673816 236.24023186005718) rotate(0 3.297106730988503 3.2971067309884674)"><path d="M6.59 3.3 C6.59 3.49, 6.58 3.68, 6.54 3.87 C6.51 4.06, 6.46 4.25, 6.4 4.42 C6.33 4.6, 6.25 4.78, 6.15 4.95 C6.06 5.11, 5.95 5.27, 5.82 5.42 C5.7 5.56, 5.56 5.7, 5.42 5.82 C5.27 5.95, 5.11 6.06, 4.95 6.15 C4.78 6.25, 4.6 6.33, 4.42 6.4 C4.25 6.46, 4.06 6.51, 3.87 6.54 C3.68 6.58, 3.49 6.59, 3.3 6.59 C3.11 6.59, 2.91 6.58, 2.72 6.54 C2.54 6.51, 2.35 6.46, 2.17 6.4 C1.99 6.33, 1.81 6.25, 1.65 6.15 C1.48 6.06, 1.32 5.95, 1.18 5.82 C1.03 5.7, 0.89 5.56, 0.77 5.42 C0.65 5.27, 0.54 5.11, 0.44 4.95 C0.35 4.78, 0.26 4.6, 0.2 4.42 C0.13 4.25, 0.08 4.06, 0.05 3.87 C0.02 3.68, 0 3.49, 0 3.3 C0 3.11, 0.02 2.91, 0.05 2.72 C0.08 2.54, 0.13 2.35, 0.2 2.17 C0.26 1.99, 0.35 1.81, 0.44 1.65 C0.54 1.48, 0.65 1.32, 0.77 1.18 C0.89 1.03, 1.03 0.89, 1.18 0.77 C1.32 0.65, 1.48 0.54, 1.65 0.44 C1.81 0.35, 1.99 0.26, 2.17 0.2 C2.35 0.13, 2.54 0.08, 2.72 0.05 C2.91 0.02, 3.11 0, 3.3 0 C3.49 0, 3.68 0.02, 3.87 0.05 C4.06 0.08, 4.25 0.13, 4.42 0.2 C4.6 0.26, 4.78 0.35, 4.95 0.44 C5.11 0.54, 5.27 0.65, 5.42 0.77 C5.56 0.89, 5.7 1.03, 5.82 1.18 C5.95 1.32, 6.06 1.48, 6.15 1.65 C6.25 1.81, 6.33 1.99, 6.4 2.17 C6.46 2.35, 6.51 2.54, 6.54 2.72 C6.58 2.91, 6.59 3.2, 6.59 3.3 C6.6 3.39, 6.6 3.2, 6.59 3.3" stroke="#000000" stroke-width="1" fill="none"></path></g><g stroke-linecap="round" transform="translate(1939.387148673816 250.87939138587467) rotate(0 3.297106730988503 3.2971067309884674)"><path d="M6.59 3.3 C6.59 3.49, 6.58 3.68, 6.54 3.87 C6.51 4.06, 6.46 4.25, 6.4 4.42 C6.33 4.6, 6.25 4.78, 6.15 4.95 C6.06 5.11, 5.95 5.27, 5.82 5.42 C5.7 5.56, 5.56 5.7, 5.42 5.82 C5.27 5.95, 5.11 6.06, 4.95 6.15 C4.78 6.25, 4.6 6.33, 4.42 6.4 C4.25 6.46, 4.06 6.51, 3.87 6.54 C3.68 6.58, 3.49 6.59, 3.3 6.59 C3.11 6.59, 2.91 6.58, 2.72 6.54 C2.54 6.51, 2.35 6.46, 2.17 6.4 C1.99 6.33, 1.81 6.25, 1.65 6.15 C1.48 6.06, 1.32 5.95, 1.18 5.82 C1.03 5.7, 0.89 5.56, 0.77 5.42 C0.65 5.27, 0.54 5.11, 0.44 4.95 C0.35 4.78, 0.26 4.6, 0.2 4.42 C0.13 4.25, 0.08 4.06, 0.05 3.87 C0.02 3.68, 0 3.49, 0 3.3 C0 3.11, 0.02 2.91, 0.05 2.72 C0.08 2.54, 0.13 2.35, 0.2 2.17 C0.26 1.99, 0.35 1.81, 0.44 1.65 C0.54 1.48, 0.65 1.32, 0.77 1.18 C0.89 1.03, 1.03 0.89, 1.18 0.77 C1.32 0.65, 1.48 0.54, 1.65 0.44 C1.81 0.35, 1.99 0.26, 2.17 0.2 C2.35 0.13, 2.54 0.08, 2.72 0.05 C2.91 0.02, 3.11 0, 3.3 0 C3.49 0, 3.68 0.02, 3.87 0.05 C4.06 0.08, 4.25 0.13, 4.42 0.2 C4.6 0.26, 4.78 0.35, 4.95 0.44 C5.11 0.54, 5.27 0.65, 5.42 0.77 C5.56 0.89, 5.7 1.03, 5.82 1.18 C5.95 1.32, 6.06 1.48, 6.15 1.65 C6.25 1.81, 6.33 1.99, 6.4 2.17 C6.46 2.35, 6.51 2.54, 6.54 2.72 C6.58 2.91, 6.59 3.2, 6.59 3.3 C6.6 3.39, 6.6 3.2, 6.59 3.3" stroke="#000000" stroke-width="1" fill="none"></path></g><g stroke-linecap="round" transform="translate(1910.0285879022495 207.0080835799099) rotate(0 32.65566750255505 32.655667502555076)"><path d="M65.31 32.66 C65.31 34.36, 65.18 36.08, 64.91 37.76 C64.64 39.45, 64.24 41.13, 63.71 42.75 C63.19 44.37, 62.53 45.96, 61.75 47.48 C60.98 49, 60.08 50.47, 59.07 51.85 C58.07 53.23, 56.95 54.54, 55.75 55.75 C54.54 56.95, 53.23 58.07, 51.85 59.07 C50.47 60.08, 49 60.98, 47.48 61.75 C45.96 62.53, 44.37 63.19, 42.75 63.71 C41.13 64.24, 39.45 64.64, 37.76 64.91 C36.08 65.18, 34.36 65.31, 32.66 65.31 C30.95 65.31, 29.23 65.18, 27.55 64.91 C25.87 64.64, 24.18 64.24, 22.56 63.71 C20.95 63.19, 19.35 62.53, 17.83 61.75 C16.31 60.98, 14.84 60.08, 13.46 59.07 C12.08 58.07, 10.77 56.95, 9.56 55.75 C8.36 54.54, 7.24 53.23, 6.24 51.85 C5.24 50.47, 4.33 49, 3.56 47.48 C2.79 45.96, 2.12 44.37, 1.6 42.75 C1.07 41.13, 0.67 39.45, 0.4 37.76 C0.14 36.08, 0 34.36, 0 32.66 C0 30.95, 0.14 29.23, 0.4 27.55 C0.67 25.87, 1.07 24.18, 1.6 22.56 C2.12 20.95, 2.79 19.35, 3.56 17.83 C4.33 16.31, 5.24 14.84, 6.24 13.46 C7.24 12.08, 8.36 10.77, 9.56 9.56 C10.77 8.36, 12.08 7.24, 13.46 6.24 C14.84 5.24, 16.31 4.33, 17.83 3.56 C19.35 2.79, 20.95 2.12, 22.56 1.6 C24.18 1.07, 25.87 0.67, 27.55 0.4 C29.23 0.14, 30.95 0, 32.66 0 C34.36 0, 36.08 0.14, 37.76 0.4 C39.45 0.67, 41.13 1.07, 42.75 1.6 C44.37 2.12, 45.96 2.79, 47.48 3.56 C49 4.33, 50.47 5.24, 51.85 6.24 C53.23 7.24, 54.54 8.36, 55.75 9.56 C56.95 10.77, 58.07 12.08, 59.07 13.46 C60.08 14.84, 60.98 16.31, 61.75 17.83 C62.53 19.35, 63.19 20.95, 63.71 22.56 C64.24 24.18, 64.64 25.87, 64.91 27.55 C65.18 29.23, 65.24 31.8, 65.31 32.66 C65.38 33.51, 65.38 31.8, 65.31 32.66" stroke="#000000" stroke-width="1" fill="none"></path></g><g transform="translate(855.5413982619477 363.52089393960784) rotate(0 175.5 36.5)"><text x="0" y="51" font-family="Virgil, Segoe UI Emoji" font-size="57.71428571428576px" fill="#000000" text-anchor="start" style="white-space: pre;" direction="ltr">Lorem Ipsum</text></g><g stroke-linecap="round" transform="translate(1242.6842554048048 363.9494653681793) rotate(0 112.14285714285722 37.14285714285714)"><path d="M-0.5 1.35 C44.55 -0.26, 90.31 -0.96, 225.28 1.06 M0.41 0.2 C47.34 0.67, 94.12 0.84, 223.45 -0.19 M223.78 0.55 C224.65 22.16, 222.49 41.72, 223.15 75.73 M225.21 0.24 C223.99 20.41, 224.76 42.65, 224.21 74.63 M223.26 72.99 C158.76 72.99, 91.14 71.88, -0.73 73.95 M224.23 74.43 C161.73 75.03, 96.93 76.12, 0.04 73.65 M1.35 75.21 C-1.5 56, 0.79 38.14, -1.37 0.35 M0.97 74.02 C-0.92 44.99, -1.37 17.93, 0.73 -0.25" stroke="#000000" stroke-width="1" fill="none"></path></g><g transform="translate(1266.3271125476622 378.5923225110365) rotate(0 88.5 22.5)"><text x="88.5" y="32" font-family="Virgil, Segoe UI Emoji" font-size="36px" fill="#000000" text-anchor="middle" style="white-space: pre;" direction="ltr">LOREM22</text></g><g transform="translate(1152.6842554048046 246.80660822532212) rotate(0 179 17.5)"><text x="0" y="25" font-family="Virgil, Segoe UI Emoji" font-size="28px" fill="#000000" text-anchor="start" style="white-space: pre;" direction="ltr">Lorem.Ipsum@ankademin.se</text></g><g stroke-linecap="round" transform="translate(709.8271125476624 566.3057137709395) rotate(0 335.0085237141356 310.23894709941203)"><path d="M-0.79 -0.41 C203.52 2.02, 405.9 1.23, 669.66 0.13 M0.1 0.35 C161.22 1.8, 321.5 1.85, 669.85 0.26 M670.73 -0.26 C670.11 200.53, 670.26 400.05, 669.67 621.11 M669.78 0.3 C671.86 187.19, 671.75 374.78, 670.15 620.57 M669.95 620.01 C508.54 620.2, 345.92 619.64, 0.46 621.13 M670 620.38 C458.93 618.98, 247.83 619.67, 0 620.17 M-0.4 619.83 C2.35 399.26, 2.2 178.13, -0.11 0.11 M-0.04 620.15 C0.5 491.55, 0.62 362.28, -0.23 0.02" stroke="#000000" stroke-width="1" fill="none"></path></g><g transform="translate(888.1680641736716 588.2887130165066) rotate(0 163.5 20)"><text x="0" y="28" font-family="Virgil, Segoe UI Emoji" font-size="31.20966653455164px" fill="#000000" text-anchor="start" style="white-space: pre;" direction="ltr">Lorem ipsum dolor sit</text></g><g stroke-linecap="round" transform="translate(155.5413982619479 162.5208939396079) rotate(0 927.8571428571429 155.7142857142857)"><path d="M-0.26 -0.49 C375.06 7.05, 750.27 7.22, 1854.94 -0.11 M-0.14 0.3 C548.68 -4.94, 1097.49 -5.22, 1855.81 -0.16 M1855.25 -1.27 C1854.71 105.25, 1855.77 210.59, 1855.48 311.76 M1855.56 0.38 C1855.83 114.6, 1855.85 230.39, 1855.93 311.36 M1855.05 311.64 C1181.71 315.61, 508.24 314.82, 0.75 311.98 M1856.04 311.5 C1294.57 309.34, 733.68 309.07, 0.15 311.13 M1.04 311.56 C-0.81 239.77, 0.95 167.43, 0.74 -0.4 M-0.39 311.86 C-0.38 217.8, -1.26 123.85, 0.57 -0.44" stroke="#000000" stroke-width="1" fill="none"></path></g><g stroke-linecap="round" transform="translate(752.0906189490788 663.9203810706445) rotate(0 297.2148372672877 100.29670318023574)"><path d="M0.41 -0.23 C191.3 0.36, 382.7 -0.35, 594.91 0.45 M0.32 -0.25 C184.79 0.75, 369.56 0.23, 594.39 0.37 M595.35 0.02 C595.95 72.68, 595.48 142.66, 595.85 200.07 M594.15 -0.52 C594.06 58.19, 593.81 114.8, 593.55 201.45 M593.8 200.13 C454.44 198.75, 315.02 200.28, -0.45 200.17 M594.81 200.82 C400.8 199.41, 207.11 199.62, -0.16 200.8 M1.49 202.08 C0.06 133.09, 0.49 62.39, -0.89 1.53 M-0.81 200.28 C-0.41 130.17, -0.55 57.96, 0.55 0.28" stroke="#000000" stroke-width="1" fill="none"></path></g><g stroke-linecap="round"><g transform="translate(755.4054185252814 863.5479845703899) rotate(0 291.0039778174767 -97.01096955353432)"><path d="M0.62 -0.34 C97.54 -32.3, 485.51 -159.7, 582.52 -191.78 M-0.51 -1.56 C96.17 -33.89, 484.49 -161.96, 581.58 -193.68" stroke="#000000" stroke-width="1" fill="none"></path></g></g><g stroke-linecap="round"><g transform="translate(1336.463692082262 862.5009791017121) rotate(0 -290.60967601651237 -97.84647434970566)"><path d="M-0.34 0.01 C-97.36 -32.71, -485.02 -163.18, -582.17 -195.7 M1.68 -1.03 C-95.46 -33.58, -485.23 -161.39, -582.9 -194.07" stroke="#000000" stroke-width="1" fill="none"></path></g></g><g transform="translate(756.8893081156368 884.3470775039896) rotate(0 302 52.5)"><text x="0" y="15" font-family="Virgil, Segoe UI Emoji" font-size="17.33870363030647px" fill="#000000" text-anchor="start" style="white-space: pre;" direction="ltr">Lorem ipsum dolor sit amet consectetur adipisicing elit. Magni </text><text x="0" y="36" font-family="Virgil, Segoe UI Emoji" font-size="17.33870363030647px" fill="#000000" text-anchor="start" style="white-space: pre;" direction="ltr">earum a, ad perferendis fuga quaerat deleniti voluptate praesentium </text><text x="0" y="57" font-family="Virgil, Segoe UI Emoji" font-size="17.33870363030647px" fill="#000000" text-anchor="start" style="white-space: pre;" direction="ltr">laudantium ut iure incidunt magnam. Incidunt hic qui </text><text x="0" y="78" font-family="Virgil, Segoe UI Emoji" font-size="17.33870363030647px" fill="#000000" text-anchor="start" style="white-space: pre;" direction="ltr">iure ratione at unde error, quo eos eveniet aliquid </text><text x="0" y="99" font-family="Virgil, Segoe UI Emoji" font-size="17.33870363030647px" fill="#000000" text-anchor="start" style="white-space: pre;" direction="ltr">quaerat quas voluptatem voluptas enim.</text></g><g transform="translate(760.6047446078455 1040.2715622936742) rotate(0 272 42)"><text x="0" y="15" font-family="Virgil, Segoe UI Emoji" font-size="17.33870363030647px" fill="#000000" text-anchor="start" style="white-space: pre;" direction="ltr">Lorem ipsum dolor sit amet consectetur adipisicing elit. Earum </text><text x="0" y="36" font-family="Virgil, Segoe UI Emoji" font-size="17.33870363030647px" fill="#000000" text-anchor="start" style="white-space: pre;" direction="ltr">aliquid quaerat possimus laudantium sit esse obcaecati </text><text x="0" y="57" font-family="Virgil, Segoe UI Emoji" font-size="17.33870363030647px" fill="#000000" text-anchor="start" style="white-space: pre;" direction="ltr">unde doloribus natus ullam distinctio impedit, eligendi molestiae </text><text x="0" y="78" font-family="Virgil, Segoe UI Emoji" font-size="17.33870363030647px" fill="#000000" text-anchor="start" style="white-space: pre;" direction="ltr">pariatur tempore. Optio earum cupiditate necessitatibus.</text></g><g stroke-linecap="round" transform="translate(185.5413982619479 183.94946536817935) rotate(0 302.85714285714283 132.14285714285714)"><path d="M-0.62 -0.76 C219.92 -1.99, 439.13 -2.07, 605.76 0.56 M606.43 -1.48 C605.7 73.77, 604.81 148.95, 607.02 264.64 M605.18 264.35 C473.42 263.47, 342.11 262.99, 0.31 264.52 M-0.99 264.19 C-2.02 200.94, -0.39 136.04, -1.53 1.41" stroke="#000000" stroke-width="1.5" fill="none" stroke-dasharray="1.5 7"></path></g><g transform="translate(221.32711254766213 208.23517965389357) rotate(0 279 70)"><text x="0" y="14" font-family="Virgil, Segoe UI Emoji" font-size="16px" fill="#000000" text-anchor="start" style="white-space: pre;" direction="ltr">Lorem!</text><text x="0" y="34" font-family="Virgil, Segoe UI Emoji" font-size="16px" fill="#000000" text-anchor="start" style="white-space: pre;" direction="ltr"></text><text x="0" y="54" font-family="Virgil, Segoe UI Emoji" font-size="16px" fill="#000000" text-anchor="start" style="white-space: pre;" direction="ltr">Lorem ipsum dolor sit amet consectetur adipisicing elit. Magni </text><text x="0" y="74" font-family="Virgil, Segoe UI Emoji" font-size="16px" fill="#000000" text-anchor="start" style="white-space: pre;" direction="ltr">earum a, ad perferendis fuga quaerat deleniti voluptate praesentium </text><text x="0" y="94" font-family="Virgil, Segoe UI Emoji" font-size="16px" fill="#000000" text-anchor="start" style="white-space: pre;" direction="ltr">laudantium ut iure incidunt magnam. Incidunt hic qui </text><text x="0" y="114" font-family="Virgil, Segoe UI Emoji" font-size="16px" fill="#000000" text-anchor="start" style="white-space: pre;" direction="ltr">iure ratione at unde error, quo eos eveniet aliquid </text><text x="0" y="134" font-family="Virgil, Segoe UI Emoji" font-size="16px" fill="#000000" text-anchor="start" style="white-space: pre;" direction="ltr">quaerat quas voluptatem voluptas enim.</text></g><g stroke-linecap="round" transform="translate(1575.148628510815 246.73489646055998) rotate(0 120.61055384842768 33.64314033619078)"><path d="M16.24 1.52 L223.91 1.62 L232.64 1.7 L237.32 4.73 L239.99 12.77 L241.86 58.15 L234.91 64.15 L224.14 67.51 L15.57 66.63 L11.4 65.85 L0.83 60.34 L-1.35 54.45 L-0.59 13.09 L4.34 7.28 L4.91 2.29 L15.19 0.59" stroke="none" stroke-width="0" fill="black"></path><path d="M16.82 0 M16.82 0 C93.23 -0.71, 170.58 0.12, 224.4 0 M16.82 0 C82.01 -1.58, 148.7 -1.83, 224.4 0 M224.4 0 C236.32 1.25, 243.12 4.91, 241.22 16.82 M224.4 0 C237.33 -0.53, 241.11 7.61, 241.22 16.82 M241.22 16.82 C240.68 29.26, 239.43 42.89, 241.22 50.46 M241.22 16.82 C240.88 27.5, 240.33 39.68, 241.22 50.46 M241.22 50.46 C242.43 60.12, 235.72 66.56, 224.4 67.29 M241.22 50.46 C241.34 61.32, 236.6 65.69, 224.4 67.29 M224.4 67.29 C173.81 66.57, 124.11 67.98, 16.82 67.29 M224.4 67.29 C157.09 66.65, 87.82 65.54, 16.82 67.29 M16.82 67.29 C7.16 67.38, -0.65 63.35, 0 50.46 M16.82 67.29 C4.59 65.97, -1.53 63.7, 0 50.46 M0 50.46 C0.69 41.47, 0.89 32.81, 0 16.82 M0 50.46 C-0.59 37.98, 0.45 23.02, 0 16.82 M0 16.82 C-1.65 3.98, 5.16 0.94, 16.82 0 M0 16.82 C0.08 6.14, 6.54 0.32, 16.82 0" stroke="#000000" stroke-width="1" fill="none"></path></g><g transform="translate(1668.1229511945473 262.00605831177893) rotate(0 40 18)"><text x="0" y="25" font-family="Virgil, Segoe UI Emoji" font-size="28.08400012725824px" fill="white" text-anchor="start" style="white-space: pre;" direction="ltr">Lorem</text></g><g stroke-linecap="round"><g transform="translate(1612.1872576587432 279.86745563351695) rotate(0 15.087444106825728 0.4560532382528777)"><path d="M0.52 -1.23 C1.62 2.41, 6.02 7.78, 11.17 11.95 M-0.5 -0.26 C3.61 2.91, 5.07 5.98, 10.26 11.76 M11.62 10.08 C15.78 4.3, 21.4 1.64, 28.54 -10.08 M10.98 11.91 C16.54 5.21, 22.6 -2.91, 30.68 -11.04" stroke="white" stroke-width="1" fill="none"></path></g></g><g stroke-linecap="round" transform="translate(1388.840657142602 557.2001681537658) rotate(0 24.064656273958576 321.9460771786353)"><path d="M12.03 0 M12.03 0 C15.38 -0.58, 21.35 0.07, 36.1 0 M12.03 0 C18.1 -0.75, 25.6 0.33, 36.1 0 M36.1 0 C42.28 -0.46, 47.31 3.65, 48.13 12.03 M36.1 0 C46.02 0.21, 47.54 4.4, 48.13 12.03 M48.13 12.03 C48.79 146.68, 48.32 282.2, 48.13 631.86 M48.13 12.03 C46.17 225.31, 46.17 437.74, 48.13 631.86 M48.13 631.86 C46.51 638.29, 43.52 644.43, 36.1 643.89 M48.13 631.86 C46.12 641.09, 45.84 642.29, 36.1 643.89 M36.1 643.89 C26.03 642.58, 16.24 645.25, 12.03 643.89 M36.1 643.89 C29.25 643.29, 25.11 644.47, 12.03 643.89 M12.03 643.89 C4.76 644.12, 0.14 638.87, 0 631.86 M12.03 643.89 C3.47 642.75, 0.26 641.4, 0 631.86 M0 631.86 C1.27 393.07, 1.53 152.55, 0 12.03 M0 631.86 C-1.5 505.2, -0.72 378.77, 0 12.03 M0 12.03 C-0.87 4.41, 2.62 -0.03, 12.03 0 M0 12.03 C-1.43 2.71, 3.64 1.73, 12.03 0" stroke="#000000" stroke-width="2" fill="none"></path></g><g stroke-linecap="round" transform="translate(1396.6454105287507 567.6065060019642) rotate(0 15.609506772297436 37.72297469971889)"><path d="M2.08 1.81 C2.08 1.81, 2.08 1.81, 2.08 1.81 M2.08 1.81 C2.08 1.81, 2.08 1.81, 2.08 1.81 M4.18 11.58 C6.16 9.09, 8.12 6.33, 11.4 3.28 M4.18 11.58 C5.93 9.25, 8.22 6.83, 11.4 3.28 M4.31 23.62 C9.75 19.15, 11.11 13.01, 22.03 3.25 M4.31 23.62 C7.41 19.61, 12.94 13.89, 22.03 3.25 M4.45 35.66 C13.77 21.96, 23.58 12.73, 31.34 4.72 M4.45 35.66 C10.1 27.89, 18.45 21.48, 31.34 4.72 M4.58 47.71 C12.6 36.78, 21.69 27.04, 31.48 16.76 M4.58 47.71 C14.28 36.95, 24.65 25.94, 31.48 16.76 M4.71 59.75 C12 51.1, 15.05 48.48, 31.61 28.8 M4.71 59.75 C10.14 52.79, 16.19 45.36, 31.61 28.8 M3.53 73.3 C12.67 62.54, 20.83 53.74, 31.74 40.84 M3.53 73.3 C13.85 61.36, 23.53 51.06, 31.74 40.84 M8.91 79.3 C15.59 70.48, 19.3 64.09, 31.88 52.88 M8.91 79.3 C16.87 70.23, 23.96 61.24, 31.88 52.88 M19.54 79.27 C23.03 75.8, 28.02 71.24, 32.01 64.93 M19.54 79.27 C21.93 76, 25.14 71.9, 32.01 64.93" stroke="black" stroke-width="1" fill="none"></path><path d="M7.8 0 M7.8 0 C13.6 -1.42, 17.62 -1.41, 23.41 0 M7.8 0 C11.19 -0.56, 15.89 -0.17, 23.41 0 M23.41 0 C28.36 -1.15, 32.84 1.68, 31.22 7.8 M23.41 0 C29.4 0.12, 30.86 0.54, 31.22 7.8 M31.22 7.8 C31.25 27.85, 31.16 50.31, 31.22 67.64 M31.22 7.8 C31.69 25.2, 30.61 40.69, 31.22 67.64 M31.22 67.64 C29.76 72.4, 30.12 74.87, 23.41 75.45 M31.22 67.64 C30.8 71.02, 29.05 75.75, 23.41 75.45 M23.41 75.45 C17.41 75.25, 11.84 76.66, 7.8 75.45 M23.41 75.45 C20.42 75.61, 15.62 75.24, 7.8 75.45 M7.8 75.45 C3.29 77.02, 0.97 72.66, 0 67.64 M7.8 75.45 C2.84 75.93, 0.7 74.6, 0 67.64 M0 67.64 C1.41 54.7, -1.75 41.95, 0 7.8 M0 67.64 C-0.82 55.91, 0.71 42.42, 0 7.8 M0 7.8 C0.65 4.29, 4.45 -1.39, 7.8 0 M0 7.8 C0.34 2.99, 3.75 0.43, 7.8 0" stroke="#000000" stroke-width="2" fill="none"></path></g><g stroke-linecap="round" transform="translate(158.3985411190908 493.9494653681793) rotate(0 202.85714285714283 353.57142857142856)"><path d="M0.68 -0.89 C159.36 -0.76, 318.16 -0.4, 405.52 1.08 M-0.35 -0.35 C158.52 -1.98, 317.86 -1.73, 405.25 -0.23 M405.45 -0.32 C403.84 148.57, 404.61 298.4, 405.71 706.47 M405.41 -0.1 C408.49 254.51, 408.16 508.9, 405.78 707.42 M404.92 706.38 C319.41 707.53, 231.63 707.63, -0.26 706.61 M405.73 707.64 C285.2 707.57, 164.75 707.05, 0.02 707.45 M-0.77 706.85 C0.38 492.79, -0.14 277.76, -0.69 0.67 M-0.33 707.01 C-2.54 484.03, -2.79 261.66, 0.34 0.11" stroke="#000000" stroke-width="1" fill="none"></path></g><g transform="translate(176.96996969051946 545.0208939396078) rotate(0 173.5 20.5)"><text x="0" y="29" font-family="Virgil, Segoe UI Emoji" font-size="33.13527851458886px" fill="#000000" text-anchor="start" style="white-space: pre;" direction="ltr">Lorem ipsum dolor sit</text></g><g stroke-linecap="round"><g transform="translate(164.77678489064272 628.0811889441669) rotate(0 191.69661684182933 -0.8581918884795243)"><path d="M0.11 -0.37 C63.84 -0.75, 318.74 -1.44, 382.5 -1.52 M-1.29 -1.61 C62.79 -1.86, 320.29 0.13, 384.69 -0.1" stroke="#000000" stroke-width="1" fill="none"></path></g></g><g stroke-linecap="round"><g transform="translate(164.77678489064272 699.3390712745595) rotate(0 191.89514937905125 0.02722328847261224)"><path d="M0.12 1.16 C63.79 1.11, 318.99 -0.52, 382.74 -1.11 M-1.27 0.73 C62.71 0.96, 320.67 0.92, 385.06 0.52" stroke="#000000" stroke-width="1" fill="none"></path></g></g><g stroke-linecap="round"><g transform="translate(166.07238275119522 779.66613862882) rotate(0 191.42191630612587 -0.8123943715316386)"><path d="M-0.48 0.55 C63.6 0.62, 319.22 -0.15, 383.33 -0.48 M1.46 -0.2 C65.47 -0.39, 318.58 -2.18, 382.29 -2.18" stroke="#000000" stroke-width="1" fill="none"></path></g></g><g stroke-linecap="round"><g transform="translate(162.18558916953748 863.8799995647385) rotate(0 191.9185847589047 -0.6953880315461447)"><path d="M0.83 1.01 C64.77 0.69, 320.06 -1.94, 384.03 -2.4 M-0.19 0.49 C63.61 0.33, 319.25 -1.25, 383.36 -1.44" stroke="#000000" stroke-width="1" fill="none"></path></g></g><g stroke-linecap="round"><g transform="translate(159.5943934484323 950.685056221762) rotate(0 191.5568554317718 -0.06960852023229336)"><path d="M0.03 -0.7 C63.85 -0.68, 318.4 0.09, 382.39 -0.16 M-1.41 1.54 C62.81 1.28, 320.38 -1.2, 384.52 -1.68" stroke="#000000" stroke-width="1" fill="none"></path></g></g><g stroke-linecap="round"><g transform="translate(158.29879558787968 1042.6725043209958) rotate(0 191.66506962503763 -0.5082710420530816)"><path d="M0.25 0.61 C64.22 0.71, 320.59 0.37, 384.4 -0.13 M-1.07 -0.11 C62.77 -0.26, 320.06 -1.38, 383.93 -1.65" stroke="#000000" stroke-width="1" fill="none"></path></g></g><g stroke-linecap="round"><g transform="translate(158.29879558787968 1126.8863652569144) rotate(0 190.96228410820936 -0.7388533962705424)"><path d="M0.26 0.86 C64.29 0.83, 319.28 -0.39, 382.98 -0.59 M-1.06 0.26 C62.86 -0.07, 317.45 -1.94, 381.76 -2.33" stroke="#000000" stroke-width="1" fill="none"></path></g></g><g transform="translate(182.97993483140652 646.5434584570414) rotate(0 171 20.50000000000003)"><text x="0" y="29" font-family="Virgil, Segoe UI Emoji" font-size="32.64906608592529px" fill="#000000" text-anchor="start" style="white-space: pre;" direction="ltr">Lorem ipsum dolor sit</text></g><g transform="translate(185.57113055251165 719.0969386479863) rotate(0 171 20.5)"><text x="0" y="29" font-family="Virgil, Segoe UI Emoji" font-size="32.64906608592529px" fill="#000000" text-anchor="start" style="white-space: pre;" direction="ltr">Lorem ipsum dolor sit</text></g><g transform="translate(180.38873911030143 807.1975931655627) rotate(0 171 20.5)"><text x="0" y="29" font-family="Virgil, Segoe UI Emoji" font-size="32.64906608592529px" fill="#000000" text-anchor="start" style="white-space: pre;" direction="ltr">Lorem ipsum dolor sit</text></g><g transform="translate(179.09314124974873 892.7070519620335) rotate(0 171 20.5)"><text x="0" y="29" font-family="Virgil, Segoe UI Emoji" font-size="32.64906608592529px" fill="#000000" text-anchor="start" style="white-space: pre;" direction="ltr">Lorem ipsum dolor sit</text></g><g transform="translate(177.79754338919622 978.2165107585045) rotate(0 171 20.5)"><text x="0" y="29" font-family="Virgil, Segoe UI Emoji" font-size="32.64906608592529px" fill="#000000" text-anchor="start" style="white-space: pre;" direction="ltr">Lorem ipsum dolor sit</text></g><g transform="translate(179.09314124974873 1071.499556718291) rotate(0 171 20.5)"><text x="0" y="29" font-family="Virgil, Segoe UI Emoji" font-size="32.64906608592529px" fill="#000000" text-anchor="start" style="white-space: pre;" direction="ltr">Lorem ipsum dolor sit</text></g><g transform="translate(175.61282683337646 1144.3066082253217) rotate(0 182.5 22.000000000000057)"><text x="0" y="31" font-family="Virgil, Segoe UI Emoji" font-size="34.857142857142925px" fill="#000000" text-anchor="start" style="white-space: pre;" direction="ltr">Lorem ipsum dolor sit</text></g><g stroke-linecap="round" transform="translate(578.3985411190906 495.37803679675073) rotate(0 26.428571428571445 353.5714285714285)"><path d="M13.21 0 M13.21 0 C23.29 1.57, 30.37 1.68, 39.64 0 M13.21 0 C19.96 -0.5, 27.72 0.69, 39.64 0 M39.64 0 C46.96 -0.37, 51.03 5.62, 52.86 13.21 M39.64 0 C47.68 0.52, 54.52 3.68, 52.86 13.21 M52.86 13.21 C54.24 280.88, 53.38 549.77, 52.86 693.93 M52.86 13.21 C54.29 249.78, 54.6 486.04, 52.86 693.93 M52.86 693.93 C53.18 701.33, 49.21 708.25, 39.64 707.14 M52.86 693.93 C54.08 702.76, 49.32 706.51, 39.64 707.14 M39.64 707.14 C32.1 705.57, 24.51 708.48, 13.21 707.14 M39.64 707.14 C31.26 707.87, 24.18 708.03, 13.21 707.14 M13.21 707.14 C4.97 708.34, -0.03 703.09, 0 693.93 M13.21 707.14 C5.05 707.64, -0.04 701.12, 0 693.93 M0 693.93 C0.21 486.13, -0.04 277.58, 0 13.21 M0 693.93 C-0.79 529.49, -0.72 366.11, 0 13.21 M0 13.21 C1.21 3.45, 5.92 1.74, 13.21 0 M0 13.21 C-0.07 6.67, 4.76 -1.28, 13.21 0" stroke="#000000" stroke-width="2" fill="none"></path></g><g stroke-linecap="round" transform="translate(586.9699696905193 506.8066082253222) rotate(0 17.14285714285711 41.428571428571445)"><path d="M2.28 1.98 C2.28 1.98, 2.28 1.98, 2.28 1.98 M2.28 1.98 C2.28 1.98, 2.28 1.98, 2.28 1.98 M4.38 11.76 C5.96 9.6, 9.34 5.8, 12.26 2.7 M4.38 11.76 C7.55 8.1, 10.12 6.06, 12.26 2.7 M3.86 24.56 C7.7 19.17, 15.17 13.13, 22.23 3.42 M3.86 24.56 C8.37 17.86, 15.23 11.61, 22.23 3.42 M3.99 36.6 C14.5 24.55, 25.68 12.61, 32.86 3.39 M3.99 36.6 C11.98 27.52, 19.22 18.52, 32.86 3.39 M4.13 48.64 C11.95 37.52, 22.55 27.74, 38.9 8.64 M4.13 48.64 C12.21 38.65, 21.5 28.54, 38.9 8.64 M4.26 60.68 C16.09 48.13, 26.16 32.64, 38.37 21.43 M4.26 60.68 C14.12 50.31, 21.66 39.43, 38.37 21.43 M4.39 72.72 C15.7 57.47, 31.17 43.83, 38.51 33.47 M4.39 72.72 C14.43 62.32, 24.11 51.08, 38.51 33.47 M5.84 83.25 C20.13 69.52, 29.03 54.96, 38.64 45.52 M5.84 83.25 C18.3 69.15, 30.4 55.75, 38.64 45.52 M16.47 83.22 C22.52 76.04, 31.37 66.37, 38.77 57.56 M16.47 83.22 C24.1 74.89, 30.24 68.45, 38.77 57.56 M27.1 83.18 C28.06 81.74, 30.08 80.6, 34.31 74.88 M27.1 83.18 C29.64 79.54, 32.62 76.12, 34.31 74.88" stroke="black" stroke-width="1" fill="none"></path><path d="M8.57 0 M8.57 0 C14.37 -1.38, 20.6 0.53, 25.71 0 M8.57 0 C12.44 0.58, 17.65 0.06, 25.71 0 M25.71 0 C29.74 1.2, 36.21 4.43, 34.29 8.57 M25.71 0 C29.68 -0.6, 34.63 2.08, 34.29 8.57 M34.29 8.57 C35 22.06, 32.19 39.11, 34.29 74.29 M34.29 8.57 C34.08 22.89, 34.17 38.37, 34.29 74.29 M34.29 74.29 C33.33 79.94, 30.46 83.23, 25.71 82.86 M34.29 74.29 C34.34 82.06, 31.58 82.87, 25.71 82.86 M25.71 82.86 C21.1 82.93, 14.47 81.7, 8.57 82.86 M25.71 82.86 C22.84 82.53, 19.24 82.16, 8.57 82.86 M8.57 82.86 C4.53 83.16, 1.72 78.49, 0 74.29 M8.57 82.86 C0.98 82.1, -0.62 78.87, 0 74.29 M0 74.29 C-0.05 62.08, -1.56 45.17, 0 8.57 M0 74.29 C0.07 52.44, 0.44 31.34, 0 8.57 M0 8.57 C1.42 4.67, 3.98 1.45, 8.57 0 M0 8.57 C-0.93 2.81, 2.09 0.9, 8.57 0" stroke="#000000" stroke-width="2" fill="none"></path></g><g stroke-linecap="round" transform="translate(1534.1128268333762 496.8066082253222) rotate(0 236.42857142857133 349.2857142857142)"><path d="M-0.44 0.28 C155.94 1.39, 312.79 1.55, 472.6 -0.61 M-0.1 0.29 C151 -1.7, 301.52 -2.31, 472.49 -0.42 M473.02 -0.31 C469.77 231.92, 469.47 462.94, 472.09 698.29 M472.53 -0.1 C471.34 233.15, 471.24 466.72, 472.67 698.71 M473.4 697.83 C327.64 696.92, 183.35 696.88, -0.32 698.42 M473.07 698.29 C327.99 699.17, 183.88 699.82, -0.13 698.49 M0.47 697.87 C-1.33 544.29, -0.55 390.24, 0.7 -0.52 M0.06 698.33 C-0.89 544.68, -0.45 390.7, -0.04 0.04" stroke="#000000" stroke-width="1" fill="none"></path></g><g stroke-linecap="round" transform="translate(1894.7820264009958 514.6186649357988) rotate(0 36.47365757523767 36.47365757523761)"><path d="M19.64 4.59 C25.49 1.21, 36.17 -1.26, 43.35 -0.06 C50.53 1.14, 57.93 6.58, 62.71 11.8 C67.5 17.02, 71.08 24.2, 72.06 31.25 C73.04 38.31, 71.75 47.64, 68.59 54.13 C65.44 60.62, 59.61 67.27, 53.12 70.2 C46.63 73.13, 36.8 73.09, 29.66 71.71 C22.53 70.34, 15.22 67.08, 10.33 61.97 C5.43 56.86, 1.33 48.28, 0.28 41.05 C-0.76 33.83, 0.21 24.98, 4.05 18.61 C7.89 12.24, 19.39 5.66, 23.32 2.83 C27.24 0, 27.32 1.18, 27.62 1.63 M35.18 1.14 C41.78 0.78, 51.9 3.28, 57.79 7.42 C63.69 11.57, 68.12 19.12, 70.56 26.02 C72.99 32.92, 74.6 42.06, 72.41 48.82 C70.21 55.57, 63.43 62.62, 57.37 66.56 C51.3 70.51, 43.16 72.44, 36.01 72.47 C28.86 72.5, 20.35 70.67, 14.47 66.74 C8.6 62.81, 3.09 55.91, 0.78 48.9 C-1.53 41.9, -1.89 31.74, 0.6 24.73 C3.09 17.72, 9.67 10.75, 15.73 6.85 C21.78 2.96, 33.42 2.6, 36.95 1.36 C40.47 0.13, 37.1 -1.16, 36.87 -0.58" stroke="none" stroke-width="0" fill="white"></path><path d="M40.52 -0.2 C47.09 0.09, 54.81 5.5, 60.24 10.32 C65.67 15.13, 71.66 21.67, 73.11 28.7 C74.57 35.72, 72.09 45.73, 68.96 52.47 C65.83 59.21, 60.6 65.59, 54.34 69.11 C48.07 72.63, 38.47 74.43, 31.38 73.59 C24.29 72.75, 16.88 69.19, 11.8 64.05 C6.71 58.92, 2.39 49.78, 0.87 42.78 C-0.65 35.79, -0.13 28.6, 2.67 22.09 C5.47 15.58, 10.16 7.03, 17.68 3.72 C25.2 0.41, 41.85 1.98, 47.79 2.24 C53.73 2.49, 53.6 4.64, 53.33 5.23 M30.95 0.54 C37.34 -0.69, 47.26 2.09, 53.63 5.46 C60 8.84, 66.04 14.52, 69.18 20.79 C72.31 27.06, 73.98 36.24, 72.45 43.07 C70.92 49.91, 65.42 56.98, 60.01 61.79 C54.59 66.6, 46.57 70.61, 39.95 71.94 C33.33 73.28, 26.38 73.19, 20.27 69.78 C14.16 66.37, 6.78 58.21, 3.29 51.5 C-0.19 44.79, -1.75 36.55, -0.63 29.52 C0.5 22.49, 4.52 14.24, 10.05 9.35 C15.59 4.47, 29.12 1.78, 32.58 0.22 C36.04 -1.34, 31.03 -0.79, 30.82 0.02" stroke="#000000" stroke-width="1" fill="none"></path></g><g stroke-linecap="round" transform="translate(1919.135996736605 528.1867406176427) rotate(0 12.935658314908892 12.935658314908949)"><path d="M8.98 0.04 C11.24 -0.79, 13.64 0.59, 16.24 1.51 C18.84 2.42, 22.98 3.2, 24.58 5.53 C26.17 7.87, 26.4 12.69, 25.81 15.52 C25.22 18.36, 23.13 20.72, 21.03 22.54 C18.93 24.37, 15.79 26.23, 13.2 26.49 C10.61 26.75, 7.75 26.02, 5.5 24.09 C3.25 22.15, 0.35 17.74, -0.31 14.88 C-0.96 12.01, -0.16 9.43, 1.56 6.9 C3.28 4.37, 8.29 0.95, 10.04 -0.29 C11.78 -1.53, 11.98 -0.93, 12.02 -0.55 M18.02 1.23 C20.8 2.03, 24.92 4.32, 26 7.04 C27.09 9.75, 25.44 14.66, 24.51 17.54 C23.59 20.42, 22.68 22.72, 20.47 24.3 C18.25 25.87, 13.82 27.15, 11.21 27.01 C8.6 26.87, 6.83 25.5, 4.82 23.46 C2.82 21.42, -0.29 17.85, -0.83 14.77 C-1.38 11.68, -0.07 7.25, 1.54 4.95 C3.14 2.64, 6.17 1.41, 8.81 0.93 C11.45 0.44, 15.96 2.09, 17.38 2.04 C18.8 1.99, 17.07 0.63, 17.34 0.63" stroke="none" stroke-width="0" fill="#868e96"></path><path d="M16.46 1.48 C19.17 2.21, 23.62 3.5, 25.04 5.92 C26.46 8.35, 25.64 13.05, 25 16.02 C24.35 18.99, 23.35 21.94, 21.19 23.72 C19.02 25.51, 14.77 26.78, 12.01 26.75 C9.24 26.73, 6.55 25.64, 4.61 23.56 C2.67 21.48, 0.92 16.98, 0.34 14.26 C-0.24 11.54, -0.11 9.65, 1.11 7.24 C2.33 4.83, 4.42 0.56, 7.65 -0.21 C10.88 -0.98, 18.07 1.87, 20.5 2.63 C22.93 3.39, 22.44 4.15, 22.23 4.35 M10.41 0.35 C12.72 -0.03, 17.14 1.59, 19.57 3.03 C22 4.48, 24.11 6.55, 25.02 9 C25.92 11.45, 26.28 15.39, 25 17.76 C23.73 20.13, 20.06 22.03, 17.38 23.21 C14.7 24.39, 11.16 25.04, 8.93 24.85 C6.69 24.66, 5.47 24.27, 3.95 22.08 C2.43 19.9, 0.1 14.78, -0.2 11.76 C-0.49 8.74, 0.49 6.01, 2.17 3.97 C3.85 1.93, 8.24 0.14, 9.89 -0.48 C11.54 -1.09, 12 0.14, 12.07 0.28" stroke="#000000" stroke-width="1" fill="none"></path></g><g stroke-linecap="round"><g transform="translate(1906.3642528028051 570.6368571045107) rotate(0 24.968154509305577 -0.15795141208010932)" fill-rule="evenodd"><path d="M1.31 0.99 L12.16 -8.47 L26.91 -13.67 L43.06 -8.01 L46.09 -4.62 L49.88 0.41 L47.5 4.15 L42.96 8.79 L29.26 11.34 L17.78 11.69 L10.98 9.65 L-0.28 -0.76" stroke="none" stroke-width="0" fill="#868e96" fill-rule="evenodd"></path><path d="M0.84 -0.18 C2.56 -1.92, 6.32 -7.87, 10.55 -9.86 C14.78 -11.85, 21.23 -12.22, 26.23 -12.1 C31.23 -11.98, 36.36 -11, 40.54 -9.14 C44.73 -7.28, 50.77 -3.79, 51.32 -0.95 C51.86 1.9, 46.98 5.6, 43.81 7.93 C40.64 10.25, 36.24 12.17, 32.31 12.98 C28.38 13.8, 24.25 13.79, 20.23 12.81 C16.21 11.84, 11.39 9.45, 8.18 7.14 C4.97 4.83, 2.52 -0.02, 0.96 -1.07 M-0.17 -1.32 C1.31 -3, 4.98 -6.81, 9.32 -8.91 C13.67 -11, 20.71 -13.96, 25.89 -13.89 C31.08 -13.81, 36.35 -10.68, 40.43 -8.46 C44.5 -6.24, 50.07 -3.65, 50.35 -0.58 C50.63 2.49, 45.52 7.94, 42.1 9.98 C38.68 12.02, 33.59 11.22, 29.85 11.65 C26.11 12.08, 23.04 13.01, 19.67 12.57 C16.3 12.13, 13.12 10.84, 9.6 9.01 C6.09 7.18, 0.42 3.3, -1.42 1.57" stroke="#000000" stroke-width="1" fill="none"></path></g></g><g transform="translate(1752.684255404805 533.0208939396078) rotate(0 56 22.5)"><text x="0" y="32" font-family="Virgil, Segoe UI Emoji" font-size="36px" fill="#000000" text-anchor="start" style="white-space: pre;" direction="ltr">Lorem!</text></g><g stroke-linecap="round" transform="translate(1570.4963121152816 633.1900935072274) rotate(0 36.47365757523767 36.47365757523764)"><path d="M48.2 2.35 C55.07 4.04, 63.06 10.32, 67.17 16.22 C71.28 22.12, 73.22 30.84, 72.86 37.76 C72.49 44.68, 69.11 52.11, 64.97 57.73 C60.83 63.36, 54.77 69.22, 48.02 71.5 C41.28 73.78, 31.27 73.84, 24.49 71.43 C17.71 69.02, 11.26 62.91, 7.34 57.05 C3.43 51.2, 0.9 43.51, 0.98 36.31 C1.06 29.11, 3.73 19.71, 7.82 13.86 C11.92 8, 17.77 2.63, 25.54 1.17 C33.31 -0.3, 48.42 3.66, 54.46 5.06 C60.49 6.46, 61.91 9.17, 61.77 9.57 M43.58 -0.18 C50.3 0.78, 58.47 5.55, 63.46 11.04 C68.45 16.54, 72.65 25.45, 73.53 32.77 C74.41 40.09, 72.4 48.81, 68.72 54.98 C65.05 61.16, 57.94 67.22, 51.47 69.84 C44.99 72.45, 36.84 72.23, 29.88 70.69 C22.92 69.15, 14.86 65.8, 9.72 60.6 C4.57 55.4, -0.32 46.63, -0.98 39.49 C-1.65 32.34, 1.67 23.81, 5.7 17.73 C9.74 11.65, 16.89 5.89, 23.2 3 C29.52 0.12, 39.88 0.7, 43.58 0.42 C47.28 0.15, 45.15 0.46, 45.39 1.35" stroke="none" stroke-width="0" fill="white"></path><path d="M35.46 -0.1 C42.13 -0.54, 51.83 2.66, 57.61 6.85 C63.4 11.03, 67.91 18.05, 70.18 24.99 C72.44 31.93, 73.28 41.49, 71.23 48.47 C69.17 55.45, 63.66 62.64, 57.85 66.85 C52.03 71.06, 43.39 73.93, 36.32 73.72 C29.25 73.51, 21.22 69.84, 15.43 65.59 C9.64 61.35, 4.01 54.85, 1.56 48.25 C-0.88 41.66, -1.48 33, 0.78 26 C3.03 19, 8.52 10.45, 15.09 6.26 C21.67 2.07, 35.31 1.56, 40.21 0.88 C45.11 0.21, 44.34 1.77, 44.48 2.22 M25.82 2.6 C32.19 0.18, 41.91 -1.52, 48.57 0.89 C55.24 3.29, 61.91 11.01, 65.82 17.01 C69.72 23.01, 71.98 29.94, 72.01 36.89 C72.05 43.84, 70.03 53.05, 66.03 58.73 C62.03 64.41, 54.9 68.96, 48.01 70.97 C41.12 72.98, 31.75 72.82, 24.7 70.77 C17.65 68.72, 9.73 64.49, 5.71 58.67 C1.69 52.85, 0.52 43.47, 0.6 35.87 C0.68 28.27, 1.78 18.77, 6.2 13.06 C10.62 7.34, 23.75 3.19, 27.1 1.6 C30.46 0.01, 26.24 3.09, 26.31 3.5" stroke="#000000" stroke-width="1" fill="none"></path></g><g stroke-linecap="round" transform="translate(1594.8502824508907 646.7581691890713) rotate(0 12.935658314908892 12.935658314908949)"><path d="M14.48 1.19 C16.98 1.47, 20.82 3.03, 22.86 5.13 C24.9 7.24, 26.75 10.99, 26.72 13.82 C26.69 16.64, 24.71 20.22, 22.65 22.09 C20.59 23.96, 16.94 24.7, 14.35 25.06 C11.77 25.41, 9.45 25.45, 7.16 24.22 C4.86 22.98, 1.49 20.36, 0.56 17.65 C-0.37 14.94, 0.38 10.56, 1.55 7.97 C2.72 5.37, 5.04 3.44, 7.59 2.07 C10.14 0.7, 15.28 -0.01, 16.85 -0.26 C18.42 -0.51, 17.31 0.27, 17.01 0.56 M15.79 1.4 C18.52 1.9, 22.22 3.2, 23.72 5.29 C25.22 7.39, 25.25 11.28, 24.79 13.96 C24.33 16.65, 22.78 19.47, 20.95 21.4 C19.12 23.33, 16.38 25.3, 13.82 25.54 C11.26 25.78, 7.79 24.56, 5.62 22.83 C3.44 21.11, 1.21 18.12, 0.78 15.19 C0.36 12.26, 1.71 7.61, 3.08 5.22 C4.45 2.84, 6.85 1.69, 9.01 0.88 C11.18 0.07, 14.63 0.38, 16.08 0.37 C17.54 0.36, 17.42 0.57, 17.73 0.84" stroke="none" stroke-width="0" fill="black"></path><path d="M9.59 0.27 C12.11 -0.53, 15.14 -0.21, 17.68 1.15 C20.22 2.52, 23.57 5.77, 24.83 8.48 C26.09 11.2, 26.08 14.78, 25.26 17.45 C24.44 20.11, 22.16 23.14, 19.93 24.46 C17.7 25.79, 14.66 25.74, 11.89 25.39 C9.13 25.03, 5.5 24.16, 3.36 22.36 C1.21 20.55, -0.84 17.51, -0.97 14.54 C-1.1 11.58, 0.51 6.88, 2.59 4.56 C4.68 2.24, 9.64 1.26, 11.53 0.63 C13.43 0, 13.72 0.73, 13.95 0.79 M9.09 1.6 C11.57 0.69, 15.67 -1.24, 18.14 -0.1 C20.6 1.05, 22.8 5.85, 23.87 8.45 C24.95 11.06, 25.05 13.03, 24.6 15.54 C24.16 18.05, 23.09 21.85, 21.19 23.49 C19.29 25.14, 16.02 25.64, 13.21 25.43 C10.39 25.22, 6.63 23.82, 4.31 22.22 C1.98 20.62, -0.45 18.55, -0.72 15.85 C-0.99 13.15, 1.25 8.79, 2.7 6.01 C4.15 3.23, 6.68 0.05, 7.98 -0.81 C9.27 -1.67, 10.15 0.2, 10.44 0.84" stroke="#000000" stroke-width="1" fill="none"></path></g><g stroke-linecap="round"><g transform="translate(1582.078538517091 689.2082856759394) rotate(0 24.898354327242373 -0.3416739799334323)" fill-rule="evenodd"><path d="M1.22 -1.36 L11.92 -7.55 L24.78 -14.33 L41.29 -9.94 L47.11 -3.54 L50.49 -2.43 L47.04 6.07 L41.55 8.54 L31.92 13.23 L20.67 12.08 L9.55 7.72 L-1.08 1.84" stroke="none" stroke-width="0" fill="black" fill-rule="evenodd"></path><path d="M-0.58 -1.18 C1.25 -2.78, 6.65 -6.88, 10.96 -9.07 C15.27 -11.26, 20.27 -14.47, 25.28 -14.33 C30.29 -14.2, 36.69 -10.49, 41.02 -8.27 C45.35 -6.05, 50.79 -3.86, 51.26 -1.02 C51.73 1.82, 47.03 6.37, 43.85 8.77 C40.67 11.18, 36.34 12.81, 32.17 13.41 C28.01 14, 22.58 13.47, 18.85 12.35 C15.13 11.24, 12.81 8.75, 9.82 6.71 C6.83 4.67, 2.7 1.37, 0.92 0.1 M1.32 0.82 C2.98 -0.66, 6.09 -5.3, 9.95 -7.7 C13.8 -10.11, 19.25 -13.73, 24.45 -13.63 C29.65 -13.54, 36.85 -9.29, 41.15 -7.13 C45.45 -4.97, 50.1 -3.14, 50.26 -0.69 C50.43 1.77, 45.6 5.45, 42.16 7.61 C38.72 9.78, 33.74 11.58, 29.64 12.29 C25.54 13, 21.1 12.52, 17.57 11.87 C14.04 11.21, 11.63 10.39, 8.45 8.36 C5.27 6.33, 0.08 1.15, -1.49 -0.29" stroke="#000000" stroke-width="1" fill="none"></path></g></g><g transform="translate(1666.9699696905188 646.520893939608) rotate(0 56.5 22.5)"><text x="0" y="32" font-family="Virgil, Segoe UI Emoji" font-size="36px" fill="#000000" text-anchor="start" style="white-space: pre;" direction="ltr">Ipsum!</text></g><g stroke-linecap="round"><g transform="translate(1152.6842554048048 286.8066082253222) rotate(0 181.39093065618408 -0.41964035867582083)"><path d="M0.14 -0.12 C60.85 -0.13, 303.6 -1, 364.03 -1.24 M-1.25 -1.23 C59.43 -0.91, 303.18 0.25, 363.69 0.4" stroke="#000000" stroke-width="1" fill="none"></path></g></g><g stroke-linecap="round" transform="translate(211.25568397623357 372.52089393960784) rotate(0 59.5 27.5)"><path d="M13.75 0 M13.75 0 C41.35 1.8, 66.24 -1.24, 105.25 0 M13.75 0 C47.85 -0.18, 81.67 -0.02, 105.25 0 M105.25 0 C115.21 -0.72, 118.01 2.96, 119 13.75 M105.25 0 C116.14 -0.44, 118.9 2.84, 119 13.75 M119 13.75 C119.61 21.02, 117.17 24.69, 119 41.25 M119 13.75 C119.59 24.35, 118.97 32.8, 119 41.25 M119 41.25 C118.13 50.87, 113.06 56.88, 105.25 55 M119 41.25 C119.54 51.01, 115.6 53.14, 105.25 55 M105.25 55 C75.34 54.49, 47.51 55.51, 13.75 55 M105.25 55 C84.47 54.64, 62.43 54.16, 13.75 55 M13.75 55 C6.19 53.79, 0.15 52.08, 0 41.25 M13.75 55 C5.02 54.1, 0.52 48.24, 0 41.25 M0 41.25 C-0.11 36.3, -0.6 26.17, 0 13.75 M0 41.25 C0.1 32.57, -0.54 23.58, 0 13.75 M0 13.75 C-0.06 3.18, 4.18 0.22, 13.75 0 M0 13.75 C2.28 5.89, 6.78 0.77, 13.75 0" stroke="#000000" stroke-width="1" fill="none"></path></g><g transform="translate(220.25568397623357 377.52089393960784) rotate(0 50.5 22.5)"><text x="50.5" y="32" font-family="Virgil, Segoe UI Emoji" font-size="36px" fill="#000000" text-anchor="middle" style="white-space: pre;" direction="ltr">Lorem</text></g><g stroke-linecap="round" transform="translate(347.46996969051935 370.73517965389357) rotate(0 59.5 27.5)"><path d="M13.75 0 M13.75 0 C33.05 -0.63, 56.84 -2.08, 105.25 0 M13.75 0 C36.98 -0.26, 58.67 -0.13, 105.25 0 M105.25 0 C113.94 -1.93, 120.84 6.17, 119 13.75 M105.25 0 C113.6 -0.85, 119.09 4.77, 119 13.75 M119 13.75 C118.61 20.18, 118.75 28.19, 119 41.25 M119 13.75 C118.09 24.62, 118.28 34.7, 119 41.25 M119 41.25 C117.04 50.81, 115.1 55.38, 105.25 55 M119 41.25 C120.07 52.56, 116.53 54.32, 105.25 55 M105.25 55 C86.16 57.12, 67.59 54.09, 13.75 55 M105.25 55 C68.54 54.88, 33.3 54.79, 13.75 55 M13.75 55 C2.88 54.64, -0.78 52.3, 0 41.25 M13.75 55 C2.58 56.94, 0.27 49.49, 0 41.25 M0 41.25 C-0.51 33.76, 1.68 24.23, 0 13.75 M0 41.25 C-0.66 34.46, -0.08 26.03, 0 13.75 M0 13.75 C-1.69 3.34, 5.99 -1.33, 13.75 0 M0 13.75 C-0.63 4.22, 4.61 1.75, 13.75 0" stroke="#000000" stroke-width="1" fill="none"></path></g><g transform="translate(355.96996969051935 375.73517965389357) rotate(0 51 22.5)"><text x="51" y="32" font-family="Virgil, Segoe UI Emoji" font-size="36px" fill="#000000" text-anchor="middle" style="white-space: pre;" direction="ltr">Ipsum</text></g><g stroke-linecap="round" transform="translate(480.32711254766224 372.163751082465) rotate(0 59.5 27.5)"><path d="M13.75 0 M13.75 0 C39.13 -1.99, 60.01 -1.31, 105.25 0 M13.75 0 C46.59 -0.35, 81.74 -0.36, 105.25 0 M105.25 0 C115.35 1.86, 120.84 3.99, 119 13.75 M105.25 0 C112.21 2.29, 119.44 4.09, 119 13.75 M119 13.75 C120.85 25.45, 117.49 34.43, 119 41.25 M119 13.75 C118.23 23.34, 118.69 34.22, 119 41.25 M119 41.25 C117.25 52.11, 114.65 54.2, 105.25 55 M119 41.25 C119.51 49.41, 113.28 54.27, 105.25 55 M105.25 55 C71.15 53.64, 36.14 53.54, 13.75 55 M105.25 55 C68.47 54.57, 34.09 54.53, 13.75 55 M13.75 55 C4.04 54.68, 0.02 51.94, 0 41.25 M13.75 55 C6.8 55.83, -0.4 51.77, 0 41.25 M0 41.25 C-0.26 31.42, 1.3 19.34, 0 13.75 M0 41.25 C-0.86 35.71, 0.4 28.91, 0 13.75 M0 13.75 C0 2.62, 5.24 1.19, 13.75 0 M0 13.75 C-1.96 3.3, 5.37 1.24, 13.75 0" stroke="#000000" stroke-width="1" fill="none"></path></g><g transform="translate(492.32711254766224 377.163751082465) rotate(0 47.5 22.5)"><text x="47.5" y="32" font-family="Virgil, Segoe UI Emoji" font-size="36px" fill="#000000" text-anchor="middle" style="white-space: pre;" direction="ltr">Dolor</text></g><g stroke-linecap="round" transform="translate(711.2556839762335 523.9494653681793) rotate(0 331.42857142857133 18.571428571428555)"><path d="M9.29 0 M9.29 0 C167.52 0.73, 324.47 0.9, 653.57 0 M9.29 0 C255.74 -0.38, 501.65 -0.18, 653.57 0 M653.57 0 C658.4 -0.48, 661.21 1.32, 662.86 9.29 M653.57 0 C659.54 -1.78, 665.08 1.75, 662.86 9.29 M662.86 9.29 C664.08 14.21, 663.63 18.69, 662.86 27.86 M662.86 9.29 C662.64 13.72, 663.73 16.92, 662.86 27.86 M662.86 27.86 C662.98 34.75, 658.42 38.22, 653.57 37.14 M662.86 27.86 C662.43 31.85, 659.36 38.1, 653.57 37.14 M653.57 37.14 C450.51 38.19, 246.98 37.54, 9.29 37.14 M653.57 37.14 C418.14 39.03, 182.56 39.35, 9.29 37.14 M9.29 37.14 C1.59 36.72, 0.97 36.01, 0 27.86 M9.29 37.14 C2.42 39.44, -2.11 31.97, 0 27.86 M0 27.86 C-1.67 22.23, 1.03 19.05, 0 9.29 M0 27.86 C-0.29 20.07, -0.36 14.96, 0 9.29 M0 9.29 C-0.81 4.58, 2.22 -1.24, 9.29 0 M0 9.29 C-2.27 1.86, 3.16 -1.34, 9.29 0" stroke="#000000" stroke-width="1" fill="none"></path></g><g stroke-linecap="round" transform="translate(716.9699696905193 526.8066082253222) rotate(0 74.5 17.5)"><path d="M2.33 2.02 C2.33 2.02, 2.33 2.02, 2.33 2.02 M2.33 2.02 C2.33 2.02, 2.33 2.02, 2.33 2.02 M9.81 17.8 C11.4 15.29, 16.26 12.91, 18.34 7.99 M9.81 17.8 C13.3 14.01, 16.34 9.58, 18.34 7.99 M11.39 40.38 C19.97 27.2, 32.05 17.21, 39.6 7.92 M11.39 40.38 C20.08 30.55, 26.37 22, 39.6 7.92 M32.65 40.31 C42.7 29.33, 47.93 19.58, 60.21 8.61 M32.65 40.31 C41.29 31.79, 48.34 20.85, 60.21 8.61 M53.91 40.24 C61.7 30.34, 69.53 24.9, 81.47 8.54 M53.91 40.24 C59.56 34, 66.9 25.48, 81.47 8.54 M75.17 40.17 C80.85 35.62, 86.88 25.47, 102.73 8.47 M75.17 40.17 C85.6 28.53, 95.76 16.49, 102.73 8.47 M95.78 40.86 C104.43 31.49, 112.01 20.89, 123.99 8.4 M95.78 40.86 C106.59 28.43, 117.08 18.08, 123.99 8.4 M117.04 40.79 C128.32 29.74, 134.31 17.09, 148.53 4.56 M117.04 40.79 C127.52 30.05, 137.18 17.25, 148.53 4.56 M142.23 36.19 C148.43 29.9, 150.88 24.9, 160.6 15.06 M142.23 36.19 C148.51 28.14, 155.26 19.84, 160.6 15.06" stroke="#ced4da" stroke-width="2" fill="none"></path><path d="M8.75 0 M8.75 0 C48.14 0.72, 91.46 -0.67, 140.25 0 M8.75 0 C59.08 -0.27, 110.7 -0.77, 140.25 0 M140.25 0 C144.11 0.74, 150.33 4.03, 149 8.75 M140.25 0 C146.74 -0.7, 148.58 4.84, 149 8.75 M149 8.75 C148.11 13.69, 149.33 19.34, 149 26.25 M149 8.75 C149.35 15.09, 148.7 22.72, 149 26.25 M149 26.25 C149.28 34.08, 145.84 36.47, 140.25 35 M149 26.25 C150.86 33.36, 147.57 33.64, 140.25 35 M140.25 35 C89.76 36.73, 35.6 36.06, 8.75 35 M140.25 35 C102.03 35.39, 64.01 34.63, 8.75 35 M8.75 35 C1.77 34.63, 0.04 33.45, 0 26.25 M8.75 35 C4.82 36.98, -0.46 32.6, 0 26.25 M0 26.25 C0.32 21.16, -0.73 19.77, 0 8.75 M0 26.25 C0.58 22.16, -0.41 18.9, 0 8.75 M0 8.75 C-0.95 1.86, 3.51 -0.41, 8.75 0 M0 8.75 C0.59 0.8, 0.77 0.42, 8.75 0" stroke="#000000" stroke-width="4" fill="none"></path></g><g transform="translate(762.9699696905193 531.8066082253222) rotate(0 28.5 12.5)"><text x="28.5" y="18" font-family="Virgil, Segoe UI Emoji" font-size="20px" fill="#000000" text-anchor="middle" style="white-space: pre;" direction="ltr">Lorem</text></g><g stroke-linecap="round" transform="translate(952.6842554048048 526.8066082253222) rotate(0 74.5 17.5)"><path d="M8.75 0 M8.75 0 C43.34 1.22, 79.63 1.14, 140.25 0 M8.75 0 C36.15 0.58, 62.82 -0.37, 140.25 0 M140.25 0 C146.58 1.22, 149.67 1.04, 149 8.75 M140.25 0 C145.38 -1.79, 149.38 1.42, 149 8.75 M149 8.75 C150.03 13.85, 149.36 16.24, 149 26.25 M149 8.75 C148.9 14.43, 148.99 19.72, 149 26.25 M149 26.25 C147.19 33.08, 146.53 34.42, 140.25 35 M149 26.25 C148.66 30.84, 144.78 34, 140.25 35 M140.25 35 C89.83 35.91, 40.11 37.01, 8.75 35 M140.25 35 C103 35.1, 66.97 36.79, 8.75 35 M8.75 35 C1.1 36.15, 0.98 33.9, 0 26.25 M8.75 35 C4.52 34.79, 0.56 29.79, 0 26.25 M0 26.25 C-1.57 20.56, 1.42 16.3, 0 8.75 M0 26.25 C0.71 21.66, -0.64 16.49, 0 8.75 M0 8.75 C-1.16 3.01, 2.85 1.99, 8.75 0 M0 8.75 C-0.32 1.56, 1.06 -1.53, 8.75 0" stroke="#000000" stroke-width="1" fill="none"></path></g><g transform="translate(998.1842554048048 531.8066082253222) rotate(0 29 12.5)"><text x="29" y="18" font-family="Virgil, Segoe UI Emoji" font-size="20px" fill="#000000" text-anchor="middle" style="white-space: pre;" direction="ltr">Ipsum</text></g><g stroke-linecap="round" transform="translate(1198.3985411190906 525.3780367967507) rotate(0 74.5 17.5)"><path d="M8.75 0 M8.75 0 C52.59 3.17, 97.91 2.75, 140.25 0 M8.75 0 C41.91 1.32, 75.55 1.66, 140.25 0 M140.25 0 C147.55 -0.54, 149.33 1.1, 149 8.75 M140.25 0 C148.31 2.14, 146.95 4.14, 149 8.75 M149 8.75 C150.54 15.66, 148.51 20.05, 149 26.25 M149 8.75 C149.77 13.42, 148.25 19.23, 149 26.25 M149 26.25 C149.65 33.65, 145.42 34.7, 140.25 35 M149 26.25 C149.64 33.47, 146.97 34.36, 140.25 35 M140.25 35 C104.48 35.79, 71.81 34.72, 8.75 35 M140.25 35 C89.39 34.72, 39.88 34.15, 8.75 35 M8.75 35 C2.08 34.02, 0.98 30.53, 0 26.25 M8.75 35 C2.6 35.97, 1.53 32.6, 0 26.25 M0 26.25 C1.37 21.39, -1.27 17.48, 0 8.75 M0 26.25 C-0.84 22.41, -0.84 18.04, 0 8.75 M0 8.75 C-1.09 0.97, 4.2 1.13, 8.75 0 M0 8.75 C2.17 3.66, 1.84 -0.25, 8.75 0" stroke="#000000" stroke-width="1" fill="none"></path></g><g transform="translate(1245.8985411190906 530.3780367967507) rotate(0 27 12.5)"><text x="27" y="18" font-family="Virgil, Segoe UI Emoji" font-size="20px" fill="#000000" text-anchor="middle" style="white-space: pre;" direction="ltr">Dolor</text></g></svg>